<?xml version="1.0" standalone="no"?>
<!DOCTYPE svg PUBLIC "-//W3C//DTD SVG 20010904//EN"
 "http://www.w3.org/TR/2001/REC-SVG-20010904/DTD/svg10.dtd">
<svg version="1.0" xmlns="http://www.w3.org/2000/svg"
 width="100.000000pt" height="100.000000pt" viewBox="0 0 100.000000 100.000000"
 preserveAspectRatio="xMidYMid meet">
<metadata>
Created by potrace 1.11, written by Peter Selinger 2001-2013
</metadata>
<g transform="translate(0.000000,100.000000) scale(0.100000,-0.100000)"
fill="#000000" stroke="none">
<path d="M685 840 c-3 -6 -11 -7 -17 -4 -6 4 -8 2 -4 -4 4 -6 -8 -16 -29 -23
-19 -7 -35 -17 -35 -22 0 -4 -5 -5 -10 -2 -6 3 -13 -1 -16 -9 -3 -9 -10 -13
-15 -10 -5 3 -9 1 -9 -4 0 -9 -31 -23 -55 -26 -5 -1 -16 -9 -23 -19 -7 -9 -18
-14 -24 -11 -6 4 -16 0 -23 -9 -6 -9 -17 -17 -25 -19 -7 -2 -22 -11 -32 -21
-11 -10 -26 -16 -34 -13 -9 3 -12 1 -9 -4 3 -6 0 -10 -9 -10 -9 0 -13 -8 -12
-25 2 -13 -1 -22 -5 -19 -5 3 -6 -9 -2 -27 5 -26 3 -30 -8 -24 -11 7 -12 6 -3
-6 7 -8 8 -22 3 -34 -11 -28 -11 -37 1 -30 6 3 10 1 10 -4 0 -6 -5 -11 -11
-11 -5 0 -7 -4 -4 -10 3 -5 1 -10 -6 -10 -8 0 -8 -4 1 -15 7 -9 10 -19 6 -22
-4 -4 -11 -1 -16 7 -6 9 -10 10 -10 3 0 -6 5 -15 10 -18 8 -5 7 -12 -2 -23
-10 -12 -10 -14 0 -8 7 4 12 1 12 -8 0 -9 -6 -16 -12 -16 -9 0 -8 -4 2 -10 9
-6 11 -10 3 -10 -7 0 -10 -7 -7 -15 4 -9 0 -15 -7 -16 -8 0 -5 -4 6 -9 11 -5
15 -9 9 -9 -13 -1 -6 -51 7 -51 5 0 9 -7 9 -16 0 -8 4 -12 10 -9 6 3 10 1 10
-4 0 -6 7 -11 15 -11 8 0 15 -4 15 -9 0 -15 66 -18 79 -4 7 8 16 11 21 8 4 -3
10 2 14 10 3 8 12 15 20 15 7 0 16 7 20 15 3 8 12 15 21 15 8 0 15 5 15 11 0
5 5 7 10 4 6 -3 10 -1 10 5 0 7 7 10 14 7 11 -4 13 -1 9 11 -3 9 -3 14 1 10 5
-4 19 4 33 18 13 13 33 24 45 24 14 0 18 5 14 16 -3 8 -2 12 4 9 6 -3 10 -1
10 4 0 6 7 11 16 11 8 0 13 4 9 9 -3 6 4 8 16 6 17 -4 20 -2 11 7 -9 9 -8 16
5 30 15 17 15 19 -3 39 -10 11 -14 20 -9 19 24 -5 27 1 9 16 -10 8 -14 13 -7
10 8 -5 10 6 7 36 -8 78 -9 148 -2 148 4 0 5 6 2 14 -3 8 -6 48 -7 88 -2 59
-5 73 -19 76 -9 2 -19 -2 -23 -8z m55 -420 c0 -5 -5 -10 -11 -10 -5 0 -7 5 -4
10 3 6 8 10 11 10 2 0 4 -4 4 -10z"/>
<path d="M735 340 c3 -5 8 -10 11 -10 2 0 4 5 4 10 0 6 -5 10 -11 10 -5 0 -7
-4 -4 -10z"/>
<path d="M626 292 c-3 -5 1 -9 9 -9 8 0 12 4 9 9 -3 4 -7 8 -9 8 -2 0 -6 -4
-9 -8z"/>
<path d="M510 200 c0 -5 5 -10 11 -10 5 0 7 5 4 10 -3 6 -8 10 -11 10 -2 0 -4
-4 -4 -10z"/>
</g>
</svg>
